<?xml version="1.0" standalone="no"?>
<!DOCTYPE svg PUBLIC "-//W3C//DTD SVG 20010904//EN"
 "http://www.w3.org/TR/2001/REC-SVG-20010904/DTD/svg10.dtd">
<svg version="1.0" xmlns="http://www.w3.org/2000/svg"
 width="1273.000000pt" height="250.000000pt" viewBox="0 0 1273.000000 250.000000"
 preserveAspectRatio="xMidYMid meet">

<g transform="translate(0.000000,250.000000) scale(0.100000,-0.100000)"
fill="#000000" stroke="none">
<path d="M0 1250 l0 -1250 6365 0 6365 0 0 314 0 314 -97 -5 c-114 -5 -154 9
-188 67 -17 29 -20 53 -20 145 0 127 18 176 76 210 49 28 141 27 192 -2 l37
-22 0 739 0 740 -6365 0 -6365 0 0 -1250z m1890 1125 c23 -8 55 -15 70 -15 17
0 47 -15 78 -40 27 -22 59 -40 70 -40 12 0 23 -9 27 -19 3 -11 12 -18 19 -15
8 3 31 -4 52 -15 21 -12 52 -21 67 -21 23 0 31 -6 40 -30 8 -21 18 -30 33 -30
17 0 26 -12 44 -60 14 -38 28 -60 38 -60 9 0 26 -10 38 -21 13 -12 34 -27 46
-33 13 -6 32 -29 42 -51 11 -22 26 -46 33 -53 7 -7 13 -21 13 -30 1 -21 31
-108 49 -141 7 -13 11 -41 9 -62 -2 -21 -1 -39 3 -39 19 0 14 -34 -12 -86 -16
-33 -29 -71 -29 -86 0 -16 -9 -34 -22 -44 -17 -12 -18 -15 -5 -10 10 3 36 9
58 12 34 6 40 4 48 -18 5 -13 9 -68 9 -121 -1 -81 -4 -99 -20 -113 -11 -10
-18 -31 -18 -51 0 -32 -19 -81 -43 -111 -5 -7 -11 -26 -12 -43 -2 -21 -17 -45
-44 -73 -23 -23 -41 -51 -41 -63 0 -15 -14 -27 -50 -44 -27 -13 -45 -26 -41
-29 5 -3 11 -16 12 -30 4 -23 8 -24 64 -25 33 0 65 -4 71 -8 6 -3 14 -30 17
-58 4 -28 15 -67 27 -86 27 -45 26 -53 -12 -96 -44 -50 -296 -227 -322 -227
-12 0 -84 7 -160 15 -77 8 -141 13 -143 11 -5 -5 57 -42 85 -51 39 -11 27 -42
-28 -70 -27 -14 -56 -25 -63 -25 -15 0 -40 19 -117 91 -27 25 -66 58 -88 72
-34 24 -41 26 -70 15 -25 -10 -39 -10 -66 0 -41 15 -64 6 -90 -33 -9 -13 -31
-31 -50 -39 -18 -7 -53 -37 -77 -65 -37 -42 -50 -51 -77 -51 -41 0 -110 45
-118 78 -7 27 -4 31 26 37 21 4 70 31 70 39 0 1 -42 -4 -92 -11 -51 -8 -114
-12 -140 -10 -96 8 -408 213 -408 267 0 10 12 43 26 74 14 31 22 61 19 66 -4
6 -4 22 -1 36 6 22 11 24 65 24 75 0 91 6 91 36 0 27 15 30 54 12 31 -13 40
-37 27 -70 -5 -13 -7 -44 -4 -69 5 -41 9 -47 72 -89 60 -41 71 -45 118 -42 48
3 52 5 58 33 6 25 2 36 -21 60 -15 16 -38 29 -50 29 -12 0 -27 7 -34 15 -7 8
-18 15 -26 15 -7 0 -37 31 -66 69 -29 39 -59 70 -66 70 -50 3 -186 149 -243
263 -61 121 -91 327 -53 359 29 24 65 -8 112 -101 24 -47 40 -71 36 -55 -11
49 -23 75 -48 108 -38 51 -59 124 -64 228 -8 175 41 333 143 462 48 61 77 71
83 29 2 -12 6 -22 10 -22 4 0 25 35 47 78 48 94 140 192 180 192 25 0 27 -3
23 -32 -3 -18 -8 -40 -12 -49 -4 -8 20 10 52 41 95 90 238 153 309 135 22 -5
25 -10 19 -35 -4 -23 -2 -30 10 -30 37 0 21 -62 -28 -108 -14 -12 -54 -38 -89
-58 -35 -20 -55 -33 -44 -29 11 4 34 9 51 12 27 4 32 1 43 -24 11 -27 15 -29
54 -24 38 6 42 9 50 44 l9 38 57 -3 c51 -3 56 -5 59 -28 5 -36 18 -47 58 -52
31 -4 37 0 50 24 16 31 29 33 85 16 37 -10 39 -14 39 -50 0 -34 4 -40 36 -55
l36 -18 25 30 c16 18 21 31 14 33 -6 2 -18 17 -26 33 -9 16 -22 29 -31 29 -8
0 -17 7 -20 15 -4 9 -19 15 -36 15 -17 0 -38 10 -53 24 -13 13 -39 26 -58 30
-38 7 -61 28 -55 48 2 6 -4 20 -14 30 -32 32 -17 78 27 78 11 0 26 9 33 20 15
24 10 23 62 5z m2560 -987 c101 -409 185 -749 188 -756 3 -9 -26 -12 -125 -12
l-129 0 -39 160 -39 160 -285 -2 -285 -3 -39 -157 -39 -158 -124 0 c-96 0
-124 3 -124 13 0 13 355 1459 365 1485 3 9 62 12 248 12 l243 0 184 -742z
m1770 -13 l0 -755 -125 0 -125 0 0 755 0 755 125 0 125 0 0 -755z m1083 727
c191 -52 279 -148 338 -367 17 -65 22 -118 26 -289 6 -231 -4 -344 -43 -466
-46 -146 -115 -234 -228 -292 -103 -52 -160 -59 -518 -65 l-328 -5 0 757 0
757 338 -5 c302 -4 345 -7 415 -25z m3117 -12 c0 -39 -1 -40 -35 -40 -34 0
-35 1 -35 40 0 39 1 40 35 40 34 0 35 -1 35 -40z m-2016 13 c3 -10 37 -135 76
-278 39 -143 73 -268 76 -277 4 -15 -1 -18 -34 -18 l-39 0 -19 73 -19 72 -121
3 -121 3 -20 -73 c-19 -73 -19 -73 -56 -76 -20 -2 -37 1 -37 5 0 9 146 546
155 571 3 8 28 12 79 12 62 0 76 -3 80 -17z m533 -143 c52 0 53 0 53 -30 0
-26 -4 -30 -28 -30 l-27 0 3 -75 c4 -74 4 -75 -30 -109 -28 -28 -44 -35 -94
-41 -82 -9 -86 -11 -82 -42 3 -28 4 -28 94 -33 128 -7 164 -36 164 -128 -1
-103 -96 -155 -251 -137 -79 9 -118 41 -126 102 -6 48 10 97 38 117 16 11 17
18 8 44 -8 24 -7 37 4 59 14 26 13 29 -15 62 -28 32 -30 38 -26 107 3 60 7 77
28 99 33 35 73 45 159 40 41 -3 98 -5 128 -5z m403 -20 c16 -12 35 -30 40 -40
17 -32 31 -121 24 -157 l-6 -33 -134 0 -134 0 0 -31 c0 -20 10 -40 29 -60 29
-28 32 -29 130 -29 l101 0 0 -29 0 -29 -93 -7 c-150 -11 -204 14 -233 110 -42
140 7 295 102 325 47 15 139 5 174 -20z m436 15 c56 -23 66 -62 72 -257 l5
-168 -42 0 -41 0 0 159 c0 145 -2 161 -21 185 -23 29 -65 34 -130 14 l-39 -11
0 -174 0 -173 -40 0 -40 0 0 215 0 215 34 0 c19 0 36 -4 38 -10 2 -6 21 -4 48
5 59 18 113 18 156 0z m1010 0 c53 -22 64 -59 64 -220 0 -135 0 -135 25 -147
18 -8 25 -19 25 -40 0 -33 -20 -37 -76 -13 -31 13 -42 13 -96 -1 -134 -35
-208 5 -208 111 0 102 30 128 169 144 45 5 85 11 88 14 10 10 -7 74 -22 87
-11 9 -44 11 -115 8 l-100 -5 0 28 c0 25 5 29 38 34 20 4 44 8 52 10 41 8 125
3 156 -10z m663 -7 c12 -7 31 -33 43 -58 31 -63 31 -214 1 -282 -30 -65 -66
-83 -170 -83 l-83 0 0 -92 0 -93 -35 0 -35 0 0 310 0 310 34 0 c19 0 36 -4 38
-10 2 -5 19 -3 43 5 46 17 131 14 164 -7z m419 2 c56 -26 81 -78 82 -172 l0
-68 -140 0 c-77 0 -140 -3 -140 -7 0 -5 5 -25 10 -45 17 -58 39 -68 157 -68
l103 0 0 -29 0 -29 -96 -7 c-154 -12 -210 16 -234 116 -17 70 -9 196 16 245
39 76 151 106 242 64z m410 -16 c-3 -33 -7 -38 -43 -49 -22 -6 -57 -20 -77
-29 l-38 -18 0 -154 0 -154 -35 0 -35 0 0 215 0 215 35 0 c31 0 35 -3 35 -25
l0 -25 43 21 c43 23 82 37 105 38 9 1 12 -10 10 -35z m-2018 -6 c0 -26 -23
-62 -110 -176 -61 -78 -110 -145 -110 -147 0 -3 50 -5 110 -5 l110 0 0 -35 0
-35 -160 0 -160 0 0 36 c0 30 17 58 111 180 l110 144 -110 0 -111 0 0 35 0 35
160 0 160 0 0 -32z m160 -183 l0 -215 -35 0 -35 0 0 215 0 215 35 0 35 0 0
-215z m-5055 -16 c44 -6 151 -10 238 -8 l157 4 0 -100 0 -100 -82 4 c-76 3
-81 2 -73 -15 33 -79 37 -102 32 -194 -8 -153 -47 -230 -143 -282 -69 -37
-193 -60 -303 -56 -89 3 -91 2 -100 -22 -29 -77 -25 -110 15 -129 15 -7 108
-16 208 -21 334 -17 407 -59 437 -250 28 -184 -47 -333 -196 -390 -161 -60
-455 -67 -616 -15 -136 45 -194 128 -194 275 1 103 13 130 97 216 53 54 57 62
43 74 -30 25 -45 68 -45 127 0 46 7 70 34 120 l33 62 -53 55 c-73 76 -98 155
-92 300 3 91 7 109 37 170 37 76 90 122 180 156 99 38 203 43 386 19z m2835
-794 l0 -305 -35 0 -35 0 0 305 0 305 35 0 35 0 0 -305z m1230 0 l0 -305 -35
0 -35 0 0 305 0 305 35 0 35 0 0 -305z m2900 0 l0 -305 -35 0 -35 0 0 305 0
305 35 0 35 0 0 -305z m-3931 278 c0 -10 -10 -52 -23 -93 -21 -72 -23 -75 -55
-78 -28 -3 -32 -1 -28 15 3 10 11 45 17 78 18 96 18 95 56 95 26 0 34 -4 33
-17z m1211 -28 c0 -45 0 -45 -35 -45 -35 0 -35 0 -35 45 0 45 0 45 35 45 35 0
35 0 35 -45z m1270 0 c0 -45 0 -45 -35 -45 -35 0 -35 0 -35 45 0 45 0 45 35
45 35 0 35 0 35 -45z m590 0 c0 -45 0 -45 -35 -45 -35 0 -35 0 -35 45 0 45 0
45 35 45 35 0 35 0 35 -45z m-2910 -260 l0 -295 -35 0 -35 0 0 295 0 295 35 0
35 0 0 -295z m2025 284 c55 -15 100 -64 119 -129 21 -71 21 -229 0 -301 -37
-124 -81 -148 -271 -149 l-133 0 0 295 0 295 123 0 c67 0 140 -5 162 -11z
m-1815 -84 l0 -65 65 0 65 0 0 -35 0 -35 -65 0 -65 0 0 -138 c0 -94 4 -142 12
-150 7 -7 36 -12 65 -12 52 0 53 -1 53 -29 0 -17 -6 -31 -16 -35 -26 -10 -111
-7 -137 5 -41 18 -50 54 -55 212 -4 147 -5 147 -28 147 -21 0 -24 5 -24 35 0
31 3 35 25 35 24 0 25 2 25 65 l0 65 40 0 40 0 0 -65z m2890 0 l0 -65 65 0 65
0 0 -35 0 -35 -65 0 -65 0 1 -122 c1 -172 1 -172 74 -178 56 -5 60 -7 63 -31
4 -30 -15 -39 -88 -39 -101 0 -119 34 -119 233 l-1 137 -30 0 c-28 0 -30 3
-30 35 0 32 2 35 30 35 l30 0 0 65 0 65 35 0 35 0 0 -65z m-2488 -65 c69 -20
78 -43 78 -206 0 -116 3 -145 16 -158 8 -9 20 -16 25 -16 5 0 9 -13 9 -30 0
-25 -4 -30 -25 -30 -15 0 -39 7 -54 14 -24 13 -34 13 -76 0 -97 -29 -179 -12
-203 41 -7 14 -12 50 -12 80 0 46 5 60 28 85 29 32 93 50 178 50 l44 0 0 38
c0 65 -22 76 -135 69 l-95 -6 0 29 c0 27 3 29 48 35 26 4 52 8 57 10 21 7 82
4 117 -5z m761 -1 c66 -18 77 -49 77 -217 0 -142 0 -142 25 -154 18 -8 25 -19
25 -40 0 -23 -4 -28 -25 -28 -15 0 -39 7 -54 14 -24 13 -34 13 -76 0 -97 -29
-179 -12 -203 41 -17 37 -15 136 3 162 19 27 62 41 155 51 l75 7 3 32 c2 22
-3 38 -19 54 -20 20 -28 21 -115 16 l-94 -5 0 28 c0 31 -3 29 90 43 50 8 96 7
133 -4z m1343 1 l64 0 0 -30 c0 -28 -3 -30 -35 -30 -33 0 -34 -1 -25 -26 6
-14 10 -44 10 -67 0 -84 -42 -124 -140 -135 -64 -7 -65 -7 -65 -37 l0 -30 90
-6 c135 -8 155 -25 155 -129 0 -54 -3 -65 -28 -90 -39 -38 -100 -54 -191 -47
-88 7 -120 26 -139 82 -16 48 -7 97 23 125 19 17 22 29 18 64 -3 24 -1 52 5
62 9 15 6 24 -15 46 -44 46 -42 181 2 218 32 27 90 40 149 35 32 -3 88 -5 122
-5z m804 -3 c58 -20 70 -58 70 -220 0 -137 0 -137 25 -149 18 -8 25 -19 25
-40 0 -24 -4 -28 -27 -28 -16 0 -40 6 -55 14 -23 12 -34 12 -74 0 -67 -20
-133 -18 -171 6 -38 22 -58 83 -48 139 14 77 44 95 175 109 l75 7 3 32 c2 22
-3 38 -19 54 -20 20 -28 21 -115 16 l-94 -5 0 28 c0 31 -3 29 90 43 50 8 106
6 140 -6z m-2470 -212 l0 -215 -35 0 -35 0 0 215 0 215 35 0 35 0 0 -215z
m1270 0 l0 -215 -35 0 -35 0 0 215 0 215 35 0 35 0 0 -215z m590 0 l0 -215
-35 0 -35 0 0 215 0 215 35 0 35 0 0 -215z"/>
<path d="M1856 2335 c5 -12 -2 -15 -29 -15 -46 0 -55 -15 -22 -36 13 -9 22
-20 19 -25 -3 -5 11 -9 30 -9 52 0 53 18 2 32 -26 7 -46 16 -46 20 0 12 38 10
62 -3 18 -9 19 -8 13 10 -9 30 9 26 37 -8 13 -15 37 -36 53 -47 l28 -18 -12
22 c-7 13 -11 31 -9 40 3 13 8 9 21 -15 26 -49 42 -60 76 -55 17 2 28 8 25 13
-3 5 -10 7 -15 3 -5 -3 -33 15 -61 41 -39 35 -57 45 -74 41 -12 -3 -35 1 -50
9 -37 19 -55 19 -48 0z"/>
<path d="M1424 2322 c-59 -21 -140 -70 -175 -108 -17 -18 -4 -13 41 19 69 47
142 87 160 87 20 0 1 -18 -53 -48 -61 -35 -175 -122 -160 -122 7 0 24 11 40
24 50 42 153 104 183 111 16 3 36 17 44 31 16 23 16 24 -6 24 -13 -1 -46 -9
-74 -18z"/>
<path d="M1480 2267 c-37 -14 -154 -89 -165 -107 -3 -6 29 12 72 40 71 46 113
62 113 43 0 -5 -37 -31 -83 -60 -122 -77 -133 -90 -32 -39 94 47 159 98 153
118 -6 17 -19 18 -58 5z"/>
<path d="M1903 2218 c2 -27 38 -48 78 -48 18 0 29 -5 29 -14 0 -7 9 -16 21
-19 15 -4 19 -2 15 10 -3 8 -6 24 -6 35 0 21 -12 21 -80 3 l-25 -7 22 20 22
19 -25 12 c-39 17 -54 14 -51 -11z"/>
<path d="M1094 2187 c-22 -23 -46 -51 -54 -62 -12 -17 -11 -17 11 3 37 33 44
27 18 -15 -29 -47 -157 -293 -153 -293 6 0 93 126 131 190 39 65 99 207 91
215 -2 3 -22 -14 -44 -38z"/>
<path d="M1858 2223 c7 -3 16 -2 19 1 4 3 -2 6 -13 5 -11 0 -14 -3 -6 -6z"/>
<path d="M2074 2186 c-3 -9 -1 -23 6 -31 7 -8 10 -22 6 -30 -3 -10 1 -15 13
-15 29 0 32 12 9 37 -25 27 -19 40 11 23 17 -8 21 -8 21 3 0 8 -6 14 -12 14
-7 0 -21 4 -30 8 -12 5 -20 2 -24 -9z"/>
<path d="M2174 2176 c-4 -9 -4 -30 0 -46 4 -23 1 -32 -15 -41 l-21 -11 23 -24
c12 -13 30 -26 41 -30 24 -7 23 -20 -2 -27 -11 -3 -20 -10 -20 -16 0 -17 43
-52 58 -46 17 6 49 -10 85 -44 l29 -26 -4 30 c-3 28 -9 32 -75 53 -40 13 -73
28 -73 34 0 6 8 7 18 3 9 -4 40 -13 69 -20 l52 -12 -21 29 c-22 32 -40 41
-105 58 -24 6 -43 16 -43 21 0 11 6 10 69 -7 21 -6 20 -3 -13 40 -20 26 -36
55 -35 64 0 13 4 11 17 -7 9 -14 25 -34 34 -45 17 -21 17 -20 18 13 0 44 10
35 16 -15 3 -26 15 -49 34 -69 l30 -30 0 28 c0 47 19 30 22 -20 3 -44 4 -46
12 -20 11 37 -22 111 -42 95 -16 -14 -23 -6 -42 45 -12 33 -21 42 -40 44 -14
0 -35 4 -47 8 -16 5 -25 3 -29 -9z"/>
<path d="M1615 2087 c-6 -32 -10 -35 -52 -41 -72 -10 -80 -8 -93 23 -11 27
-13 28 -46 18 -31 -9 -34 -14 -34 -49 0 -35 -3 -39 -51 -64 l-51 -25 -22 20
c-12 12 -27 21 -33 21 -18 0 -70 -101 -76 -149 -7 -58 -54 -150 -121 -238 -48
-63 -56 -81 -62 -132 -6 -58 -7 -59 -40 -66 -32 -5 -34 -8 -34 -45 0 -33 4
-40 19 -40 39 0 51 -11 51 -47 0 -30 2 -34 15 -23 8 7 20 31 26 53 6 22 24 53
40 69 17 17 29 40 29 55 0 20 4 24 18 18 96 -38 226 -85 228 -82 2 1 -47 40
-107 86 -61 46 -107 86 -104 89 3 4 72 9 153 12 l147 5 -132 39 c-73 21 -133
42 -133 46 0 14 52 85 93 128 58 59 137 111 216 138 110 39 105 46 97 -113
l-6 -138 51 143 c29 79 55 140 59 135 4 -4 29 -70 55 -145 26 -76 49 -138 50
-138 1 0 -1 63 -3 140 -5 160 -11 152 86 119 116 -39 247 -142 300 -238 18
-31 20 -42 10 -46 -7 -3 -67 -20 -133 -39 l-120 -34 125 -2 c200 -4 198 0 69
-98 -61 -46 -108 -86 -106 -88 2 -3 55 14 116 36 62 22 114 40 116 40 3 0 7
-23 11 -50 5 -35 10 -48 18 -41 21 17 85 10 100 -11 9 -12 23 -18 38 -16 19 2
24 10 26 39 3 35 1 37 -32 43 -37 7 -46 25 -50 104 -3 53 -34 99 -88 133 -37
22 -48 35 -48 54 0 14 4 25 9 25 5 0 3 14 -6 31 -11 23 -12 34 -4 42 15 15 14
28 -2 21 -7 -2 -30 14 -52 36 -37 38 -39 42 -27 72 13 35 5 53 -30 64 -13 4
-27 -1 -42 -15 l-23 -22 -52 27 c-50 26 -52 29 -49 63 3 33 0 36 -31 45 -24 7
-36 7 -38 -1 -13 -39 -29 -46 -89 -37 -55 8 -59 11 -64 39 -4 26 -10 30 -42
33 -35 3 -37 1 -43 -31z"/>
<path d="M2061 2103 c-1 -6 10 -20 24 -31 26 -20 33 -42 14 -42 -5 0 -7 -4 -4
-10 7 -11 49 -14 43 -2 -3 4 -11 22 -18 40 -8 18 -22 32 -31 32 -10 0 -20 6
-22 13 -4 8 -6 8 -6 0z"/>
<path d="M1301 2069 l-64 -30 28 -29 28 -29 37 19 c35 18 38 23 37 60 -1 22
-2 40 -2 39 0 0 -29 -14 -64 -30z"/>
<path d="M1153 1999 c-34 -52 -60 -95 -58 -97 1 -2 14 0 28 3 19 5 33 25 62
86 20 43 35 84 33 90 -2 7 -31 -30 -65 -82z"/>
<path d="M1142 2045 c-27 -34 -85 -130 -65 -110 15 15 103 145 98 145 -2 0
-17 -16 -33 -35z"/>
<path d="M848 1956 c-47 -61 -83 -134 -103 -211 -20 -74 -30 -236 -18 -290 8
-36 10 -29 16 63 4 57 14 137 23 178 16 79 61 194 75 194 12 0 12 3 -11 -62
-21 -59 -45 -189 -54 -293 -6 -62 -5 -60 93 302 12 45 21 102 19 125 l-3 43
-37 -49z"/>
<path d="M2406 1984 c-3 -9 -6 -27 -6 -40 0 -13 -5 -32 -11 -42 -9 -14 -8 -25
5 -50 9 -17 16 -38 16 -46 0 -8 10 -16 23 -18 19 -3 22 -10 25 -51 2 -30 8
-50 18 -54 8 -3 14 -15 14 -27 0 -13 12 -31 29 -44 l29 -21 -6 22 c-3 12 -20
40 -39 61 -18 22 -33 43 -33 48 0 15 15 8 28 -13 20 -31 25 -16 9 23 -8 19
-34 51 -58 71 -43 36 -36 53 8 22 22 -15 22 -15 12 14 -6 15 -21 39 -35 52
-27 26 -32 44 -8 35 12 -4 14 -1 9 14 -13 42 14 18 32 -27 11 -30 19 -41 21
-30 7 36 22 15 21 -30 -1 -27 5 -64 14 -83 l15 -35 7 33 c4 18 12 35 16 38 16
9 10 37 -6 30 -10 -4 -15 1 -15 15 0 34 -30 88 -45 83 -7 -3 -21 6 -31 21 -23
36 -50 49 -58 29z"/>
<path d="M2145 1919 c-5 -15 1 -29 21 -50 26 -28 30 -29 41 -13 20 27 16 37
-22 61 l-34 22 -6 -20z"/>
<path d="M1464 1876 c-81 -30 -184 -104 -233 -169 -22 -28 -39 -53 -37 -54 4
-4 308 -93 317 -93 7 0 24 328 18 335 -2 1 -32 -7 -65 -19z"/>
<path d="M2247 1880 c-3 -11 -1 -18 3 -15 5 3 17 -6 28 -20 25 -31 32 -32 32
0 0 17 -9 29 -29 39 -27 14 -29 14 -34 -4z"/>
<path d="M1792 1730 c2 -87 7 -162 10 -165 11 -12 318 77 318 92 0 7 -33 46
-72 87 -52 52 -94 83 -147 109 -119 59 -114 65 -109 -123z"/>
<path d="M1092 1854 c-37 -26 -123 -163 -175 -278 -50 -112 -58 -158 -11 -64
36 72 164 268 175 268 15 0 11 -9 -32 -84 -22 -39 -34 -64 -25 -56 23 23 93
161 101 198 7 36 0 39 -33 16z"/>
<path d="M1596 1692 l-57 -168 -47 0 c-26 1 -107 0 -181 -2 l-134 -2 104 -80
c57 -45 123 -93 146 -108 29 -18 40 -32 36 -42 -24 -63 -98 -328 -89 -323 41
24 255 175 266 188 12 14 14 14 30 0 24 -22 274 -195 277 -192 4 5 -86 301
-97 319 -13 23 -13 26 5 30 14 3 277 200 272 204 -1 1 -82 4 -180 6 -110 2
-177 7 -177 13 0 10 -108 316 -113 321 -2 2 -29 -72 -61 -164z"/>
<path d="M2333 1821 c-13 -11 -18 -22 -13 -31 6 -9 10 -7 15 9 3 11 11 21 16
21 12 0 12 -1 -12 -54 -19 -43 -19 -51 -7 -82 l14 -35 28 41 c31 46 46 48 22
3 -19 -39 -5 -65 18 -32 18 26 22 89 6 89 -6 0 -21 -11 -34 -25 -33 -35 -37
-31 -21 16 18 51 19 73 3 87 -9 7 -19 5 -35 -7z"/>
<path d="M2243 1810 c3 -13 0 -20 -9 -20 -28 0 -13 -25 16 -27 28 -2 30 0 24
25 -9 35 -13 42 -26 42 -6 0 -8 -9 -5 -20z"/>
<path d="M2561 1745 c-9 -39 -9 -59 1 -94 l13 -44 12 26 c8 18 9 27 2 27 -6 0
-8 16 -4 43 4 23 2 53 -3 67 -8 22 -10 20 -21 -25z"/>
<path d="M2235 1740 c3 -5 8 -10 11 -10 2 0 4 5 4 10 0 6 -5 10 -11 10 -5 0
-7 -4 -4 -10z"/>
<path d="M2286 1707 c3 -10 9 -15 12 -12 3 3 0 11 -7 18 -10 9 -11 8 -5 -6z"/>
<path d="M2237 1701 c-18 -7 -18 -8 -1 -21 10 -8 15 -10 11 -3 -4 6 -1 13 5
16 7 2 11 7 8 9 -3 3 -13 2 -23 -1z"/>
<path d="M2610 1680 c-1 -3 -3 -20 -5 -39 -3 -30 -1 -32 13 -17 12 12 13 20 4
38 -6 13 -11 21 -12 18z"/>
<path d="M2440 1646 c0 -2 24 -23 53 -46 37 -30 41 -32 15 -7 -21 19 -38 39
-38 46 0 6 -7 11 -15 11 -8 0 -15 -2 -15 -4z"/>
<path d="M2320 1621 c0 -6 4 -13 10 -16 6 -3 7 1 4 9 -7 18 -14 21 -14 7z"/>
<path d="M2367 1600 c3 -11 9 -22 13 -25 5 -3 6 4 3 15 -3 11 -9 22 -13 25 -5
3 -6 -4 -3 -15z"/>
<path d="M2411 1594 c0 -11 3 -14 6 -6 3 7 2 16 -1 19 -3 4 -6 -2 -5 -13z"/>
<path d="M2587 1588 c-2 -7 -1 -33 2 -58 l7 -45 17 32 c22 41 21 43 -4 43 -16
0 -19 4 -14 20 7 22 0 28 -8 8z"/>
<path d="M2471 1523 c10 -31 24 -60 30 -64 6 -3 14 -27 16 -53 l6 -46 23 23
c13 12 24 26 24 32 0 5 -5 4 -12 -3 -18 -18 -28 -15 -28 8 0 10 -11 36 -25 56
-13 20 -27 51 -31 70 -3 19 -10 34 -15 34 -4 0 1 -26 12 -57z"/>
<path d="M2530 1540 c-13 -8 -11 -14 13 -35 24 -23 27 -24 27 -7 0 29 -22 53
-40 42z"/>
<path d="M2364 1491 c3 -18 6 -40 6 -47 0 -8 7 -14 15 -14 19 0 19 -1 -6 51
-20 42 -20 43 -15 10z"/>
<path d="M2401 1512 c-1 -19 18 -52 29 -52 6 0 10 9 10 20 0 11 -6 20 -14 20
-8 0 -17 6 -19 13 -4 9 -6 9 -6 -1z"/>
<path d="M934 1499 c-6 -8 -19 -28 -27 -45 -16 -31 -16 -31 9 -26 25 4 39 34
32 68 -2 14 -5 15 -14 3z"/>
<path d="M2456 1421 c-3 -4 1 -17 9 -27 14 -18 14 -18 15 9 0 26 -13 36 -24
18z"/>
<path d="M1110 1369 c0 -27 4 -39 14 -39 19 0 28 -44 25 -117 -3 -59 20 -120
69 -181 l18 -24 96 139 c52 76 94 139 93 141 -2 2 -73 29 -159 61 l-156 59 0
-39z"/>
<path d="M2047 1346 c-81 -29 -150 -56 -153 -59 -3 -3 36 -67 86 -142 89 -134
92 -136 111 -119 28 25 87 149 100 209 15 74 23 165 13 164 -5 0 -76 -24 -157
-53z"/>
<path d="M854 1335 c-8 -30 -7 -53 2 -89 17 -64 25 -72 63 -56 26 10 31 18 31
45 0 39 -22 65 -55 65 -20 0 -24 6 -27 38 l-3 37 -11 -40z"/>
<path d="M1056 1210 c-4 -85 -6 -182 -4 -215 l3 -60 15 45 c17 51 19 304 3
355 -8 23 -12 -4 -17 -125z"/>
<path d="M2440 1333 c0 -26 -4 -33 -19 -33 -41 0 -51 -11 -51 -54 0 -35 4 -44
29 -59 56 -33 68 -23 77 72 5 47 3 60 -15 81 l-20 25 -1 -32z"/>
<path d="M2612 1343 c-12 -2 -29 -14 -36 -26 -19 -29 -32 -112 -17 -103 6 4
11 24 11 44 0 28 3 33 10 22 8 -13 14 -10 35 15 28 34 33 19 9 -26 -15 -30
-15 -31 5 -24 12 4 21 2 21 -4 0 -6 -7 -11 -16 -11 -11 0 -14 -6 -10 -20 3
-11 9 -29 12 -40 6 -22 19 -26 30 -8 4 7 1 16 -8 22 -14 9 -14 13 5 37 17 23
18 31 7 43 -7 9 -9 23 -6 32 8 22 -2 54 -17 53 -7 -1 -22 -4 -35 -6z"/>
<path d="M2266 1314 c-9 -23 -8 -24 14 -24 21 0 29 -26 33 -115 1 -34 8 -56
21 -67 24 -22 32 -22 40 -2 9 24 7 28 -9 14 -29 -24 -38 -1 -31 89 7 91 1 134
-16 109 -7 -10 -11 -10 -15 0 -7 17 -30 15 -37 -4z"/>
<path d="M670 1257 c0 -71 23 -158 65 -242 53 -107 82 -135 36 -35 -49 105
-83 207 -78 229 3 13 5 13 12 -4 75 -194 168 -379 211 -422 27 -27 76 -30 95
-6 8 9 9 14 2 10 -6 -4 -20 5 -32 20 l-21 28 11 -28 c14 -32 8 -42 -23 -33
-37 9 -63 60 -124 236 -70 206 -116 300 -146 300 -4 0 -8 -24 -8 -53z"/>
<path d="M2510 1288 c0 -13 -2 -41 -5 -63 l-5 -40 10 40 c6 22 12 50 15 63 3
12 1 22 -5 22 -5 0 -10 -10 -10 -22z"/>
<path d="M1021 1238 c-5 -29 -13 -72 -16 -96 -8 -47 3 -207 13 -197 6 6 22
337 17 343 -2 2 -8 -20 -14 -50z"/>
<path d="M1122 1245 c0 -16 2 -22 5 -12 2 9 2 23 0 30 -3 6 -5 -1 -5 -18z"/>
<path d="M2245 1240 c-4 -6 -11 -8 -16 -5 -14 9 -11 -2 16 -53 14 -26 25 -59
25 -75 0 -25 -2 -27 -21 -17 -29 16 -32 9 -19 -40 8 -31 15 -39 22 -32 8 8 7
16 -2 27 -17 20 -5 32 15 15 12 -10 15 -9 15 6 1 11 3 44 6 74 7 75 -18 137
-41 100z"/>
<path d="M951 1140 c-43 -89 -39 -111 5 -26 19 38 33 74 31 80 -3 6 -19 -18
-36 -54z"/>
<path d="M2571 1173 c-7 -8 -19 -12 -27 -9 -10 4 -14 -2 -14 -19 0 -33 -14
-39 -51 -20 -37 19 -40 18 -27 -15 7 -19 11 -21 17 -11 7 10 16 3 37 -29 26
-40 28 -41 36 -20 5 13 5 39 2 58 -5 24 -3 33 4 28 6 -3 15 2 21 11 9 16 10
15 10 -7 0 -14 -4 -43 -9 -65 l-9 -40 25 30 c38 48 30 5 -10 -46 -39 -51 -58
-113 -32 -103 9 3 16 1 16 -4 0 -6 -8 -13 -19 -17 -10 -3 -35 -33 -54 -66 -31
-52 -33 -59 -14 -46 12 8 24 23 26 33 2 11 21 38 42 61 30 33 38 49 34 66 -4
16 3 34 24 61 17 21 31 45 31 52 0 7 3 19 6 28 4 10 1 16 -9 16 -17 0 -27 21
-27 55 0 30 -11 37 -29 18z"/>
<path d="M1321 1076 c-39 -58 -75 -107 -80 -110 -10 -7 -71 72 -92 118 -12 26
-14 26 -26 10 -7 -10 -13 -27 -13 -39 0 -20 -22 -114 -35 -147 -6 -15 -3 -16
24 -5 30 11 33 9 72 -29 41 -41 41 -42 25 -71 -14 -28 -14 -32 2 -45 34 -29
43 -30 68 -7 l24 22 49 -23 c47 -21 50 -26 53 -63 3 -35 7 -42 32 -50 22 -7
31 -6 37 4 26 46 32 48 91 37 54 -9 56 -11 63 -44 6 -33 8 -35 43 -32 32 3 37
7 40 31 4 31 20 40 88 50 39 6 42 5 54 -23 14 -34 15 -34 56 -20 25 9 29 16
29 46 0 31 5 38 47 61 l46 25 32 -22 c30 -22 32 -22 53 -4 12 10 23 19 25 20
1 0 -4 16 -12 34 -13 33 -13 34 28 73 39 37 42 38 74 27 29 -10 35 -9 47 7 20
26 19 31 -14 59 -30 25 -66 115 -57 140 3 8 15 14 26 14 11 0 20 4 20 8 0 11
-28 48 -32 42 -2 -3 -18 -34 -35 -70 -33 -66 -87 -140 -103 -140 -5 0 -39 47
-75 105 -37 58 -69 104 -71 102 -2 -2 14 -64 36 -137 22 -73 39 -135 37 -136
-2 -2 -56 33 -120 77 -64 44 -117 77 -117 74 0 -4 33 -50 74 -103 41 -53 73
-100 70 -104 -3 -4 -37 -18 -77 -30 -100 -31 -244 -31 -344 0 -40 12 -75 27
-78 32 -3 5 30 55 75 110 74 92 91 121 51 87 -9 -8 -61 -44 -115 -82 l-99 -68
6 34 c3 19 22 85 41 147 19 61 32 112 30 112 -2 0 -35 -47 -73 -104z"/>
<path d="M2350 1165 c0 -8 9 -15 20 -15 11 0 20 2 20 5 0 2 -9 9 -20 15 -16 9
-20 8 -20 -5z"/>
<path d="M2491 1164 c0 -11 3 -14 6 -6 3 7 2 16 -1 19 -3 4 -6 -2 -5 -13z"/>
<path d="M887 1153 c-3 -5 -2 -23 2 -39 6 -22 10 -25 15 -13 8 18 -8 67 -17
52z"/>
<path d="M1549 986 l-107 -133 54 -17 c106 -33 243 -31 334 6 l32 13 -92 120
c-51 66 -97 125 -104 132 -8 9 -36 -19 -117 -121z"/>
<path d="M946 1040 c-16 -39 -26 -73 -24 -76 3 -2 17 28 33 67 15 38 25 72 23
75 -3 2 -17 -28 -32 -66z"/>
<path d="M2403 1090 c-3 -11 -11 -20 -17 -20 -12 0 -40 -69 -32 -77 9 -9 66
71 66 92 0 30 -10 33 -17 5z"/>
<path d="M2477 1060 c4 -15 0 -20 -16 -20 -24 0 -26 -15 -6 -50 19 -34 19 -64
0 -56 -9 3 -15 0 -15 -10 0 -8 5 -12 10 -9 6 4 17 2 25 -5 11 -9 16 -7 23 7
21 41 22 72 2 117 -20 48 -32 61 -23 26z"/>
<path d="M2305 1049 c-4 -12 -2 -26 4 -32 8 -8 11 -2 11 21 0 37 -6 41 -15 11z"/>
<path d="M2280 1003 c0 -12 38 -48 45 -41 3 2 -6 15 -20 28 -14 13 -25 19 -25
13z"/>
<path d="M2356 949 c-26 -28 -61 -76 -79 -105 -19 -31 -39 -54 -49 -54 -13 0
-18 -8 -18 -32 0 -18 -11 -45 -26 -65 -14 -18 -21 -33 -16 -33 19 0 52 43 93
120 24 44 67 112 96 150 28 39 50 70 48 70 -2 0 -24 -23 -49 -51z"/>
<path d="M902 890 c0 -14 2 -19 5 -12 2 6 2 18 0 25 -3 6 -5 1 -5 -13z"/>
<path d="M1043 814 c42 -68 53 -81 55 -62 2 12 -1 24 -7 26 -6 2 -30 30 -52
63 -22 32 -42 59 -44 59 -3 0 19 -39 48 -86z"/>
<path d="M2444 886 c-6 -7 -13 -29 -16 -49 -3 -29 -1 -34 10 -25 7 6 20 24 27
39 11 21 12 29 2 37 -8 7 -16 6 -23 -2z"/>
<path d="M926 872 c-2 -4 5 -14 17 -22 19 -12 21 -11 10 2 -7 8 -10 18 -6 21
3 4 1 7 -5 7 -6 0 -13 -4 -16 -8z"/>
<path d="M1087 869 c-9 -6 -15 -15 -12 -20 4 -5 10 -7 15 -4 5 3 19 1 31 -5
17 -10 20 -19 16 -48 -6 -48 13 -88 68 -142 35 -34 48 -41 57 -32 19 19 52 14
141 -19 51 -20 96 -45 119 -67 35 -34 39 -35 75 -25 65 18 117 16 145 -7 36
-27 53 -25 78 10 14 19 56 48 112 76 74 37 97 44 124 39 30 -5 35 -2 49 24 8
17 29 46 45 64 22 25 30 45 32 82 2 40 7 52 26 61 21 10 21 12 6 18 -12 5 -27
-3 -47 -23 -28 -28 -29 -31 -17 -61 12 -30 12 -33 -16 -56 -43 -35 -61 -38
-90 -15 -24 19 -27 19 -60 4 -30 -15 -34 -21 -34 -54 0 -35 -2 -38 -47 -53
-61 -21 -60 -21 -78 14 -15 28 -19 30 -53 24 -41 -8 -52 -18 -52 -51 0 -21 -5
-23 -59 -23 -61 0 -71 7 -71 50 0 13 -11 19 -42 23 -24 3 -44 2 -46 -3 -2 -6
-11 -19 -21 -31 -17 -22 -18 -22 -70 -4 -53 17 -53 17 -48 54 6 34 4 37 -31
53 -35 17 -37 17 -57 -2 -28 -26 -39 -25 -86 8 -43 30 -45 36 -24 72 12 23 11
27 -13 53 -28 29 -38 32 -65 16z"/>
<path d="M2370 841 c-13 -32 -34 -41 -43 -18 -3 6 -6 -2 -6 -18 -2 -55 -140
-199 -160 -166 -6 9 -13 5 -24 -13 -9 -14 -37 -37 -62 -51 -25 -15 -45 -34
-45 -42 0 -20 102 36 108 60 4 14 11 17 30 12 21 -5 35 5 98 72 41 43 74 83
74 90 0 7 13 27 29 46 18 20 27 38 22 46 -6 8 -12 3 -21 -18z"/>
<path d="M1040 746 c0 -2 8 -10 18 -17 15 -13 16 -12 3 4 -13 16 -21 21 -21
13z"/>
<path d="M1110 701 c5 -11 15 -23 21 -27 6 -3 3 5 -6 20 -20 30 -30 35 -15 7z"/>
<path d="M2353 703 c-34 -19 -109 -104 -123 -140 -5 -12 -21 -24 -37 -27 -16
-4 -41 -17 -56 -29 -48 -38 -12 -77 70 -77 42 0 151 72 158 104 12 65 12 95
-1 114 -18 26 -9 48 24 61 15 5 20 10 12 10 -8 1 -30 -7 -47 -16z"/>
<path d="M920 660 c-7 -14 -21 -20 -44 -20 -53 0 -52 -24 0 -55 25 -15 47 -25
48 -23 6 6 16 118 11 118 -2 0 -9 -9 -15 -20z"/>
<path d="M1084 635 c24 -18 59 -20 54 -2 -3 6 -20 13 -39 15 -32 2 -33 1 -15
-13z"/>
<path d="M2402 597 c-2 -38 0 -47 10 -41 100 59 103 66 33 82 l-40 9 -3 -50z"/>
<path d="M1160 625 c0 -8 7 -15 15 -15 8 0 15 -4 15 -9 0 -4 17 -19 38 -33 90
-59 92 -61 86 -47 -9 23 -154 120 -154 104z"/>
<path d="M767 594 c3 -7 -7 -39 -21 -70 -15 -31 -25 -58 -23 -60 10 -11 67 65
67 90 0 21 6 20 41 -5 16 -11 29 -29 29 -39 0 -20 -32 -44 -44 -33 -3 3 -6 -8
-6 -25 0 -17 4 -34 10 -37 12 -7 63 72 55 85 -13 22 19 8 78 -33 34 -23 75
-48 91 -55 20 -9 26 -16 18 -21 -7 -4 -17 -22 -22 -41 l-9 -33 24 23 c14 13
25 28 25 34 0 7 23 11 58 10 31 0 62 3 69 8 6 5 27 8 45 6 26 -2 34 -8 36 -26
2 -12 10 -35 18 -50 15 -26 15 -26 9 18 -4 25 -11 50 -16 56 -6 8 -4 14 7 18
27 10 30 7 32 -40 1 -25 4 -50 7 -55 10 -15 35 -10 35 6 0 18 16 20 23 3 3 -7
6 1 6 17 1 17 -6 42 -13 58 -14 26 -14 27 13 27 24 0 27 -3 25 -32 -1 -26 0
-27 3 -6 5 32 37 58 70 58 18 0 23 -6 23 -27 0 -25 -1 -26 -14 -8 -19 26 -46
13 -46 -23 0 -59 40 -78 60 -28 7 17 9 17 9 4 1 -10 6 -18 11 -18 6 0 10 8 10
18 0 9 3 34 6 55 l7 37 -40 0 c-22 0 -94 -9 -159 -21 -66 -11 -154 -24 -198
-29 l-79 -9 -96 64 c-122 81 -241 147 -234 129z"/>
<path d="M2510 578 c-30 -17 -99 -65 -152 -106 l-98 -75 -77 6 c-43 3 -136 17
-206 31 -71 14 -139 26 -152 26 l-24 0 21 -36 c16 -28 19 -45 15 -83 l-6 -48
92 -22 c121 -28 215 -41 307 -41 l76 0 139 95 c77 53 147 105 156 117 16 20
16 25 -1 62 -10 23 -22 56 -27 73 l-8 33 -55 -32z m28 -70 c26 -18 50 -32 55
-30 4 1 7 -4 7 -12 0 -21 -31 -29 -44 -11 -7 10 -16 12 -25 6 -12 -8 -12 -12
-2 -25 12 -15 8 -36 -8 -36 -4 0 -13 21 -19 48 -6 26 -14 57 -18 70 -8 29 -1
28 54 -10z m-88 -19 c0 -6 14 -31 32 -55 17 -24 29 -46 27 -49 -3 -2 -29 4
-57 15 l-53 20 17 -25 c9 -14 23 -25 30 -25 24 0 15 -16 -24 -44 -44 -30 -52
-32 -52 -11 0 17 -26 20 -36 4 -3 -6 -1 -15 6 -19 15 -10 4 -30 -16 -30 -8 0
-13 4 -10 9 3 5 1 34 -5 66 -6 31 -8 59 -5 63 3 3 28 -14 55 -36 55 -46 61
-49 61 -26 0 22 -50 85 -62 78 -6 -4 -8 -1 -6 7 5 15 49 18 86 5 22 -7 22 -6
10 13 -7 12 -18 21 -25 21 -17 0 -17 17 0 23 20 9 27 8 27 -4z m-520 -64 c14
-1 38 -3 53 -3 15 -1 30 -9 34 -17 8 -21 -6 -33 -17 -15 -13 21 -22 7 -27 -45
-8 -64 16 -60 50 10 26 53 47 71 47 40 0 -40 23 -115 35 -115 15 0 32 81 20
99 -4 7 5 11 24 11 30 0 43 -14 20 -22 -6 -2 -13 -25 -16 -51 -6 -49 8 -62 35
-35 9 9 12 7 12 -11 0 -19 -4 -22 -22 -18 -13 3 -47 9 -75 13 -49 6 -52 8 -47
30 5 20 2 24 -16 24 -18 0 -21 -4 -17 -20 5 -20 2 -21 -41 -14 -55 8 -68 14
-53 23 16 10 27 101 12 101 -6 0 -11 -4 -11 -10 0 -5 -4 -10 -10 -10 -5 0 -10
8 -10 17 0 12 -3 14 -10 7 -6 -6 -12 -34 -13 -62 -1 -39 -5 -51 -15 -47 -8 3
-18 5 -23 5 -6 0 -6 7 -1 18 14 26 22 92 11 92 -5 0 -9 5 -9 11 0 7 10 9 28 4
15 -4 38 -8 52 -10z m342 -58 c-12 -14 -4 -97 9 -97 5 0 9 -4 9 -10 0 -5 -12
-10 -27 -10 -28 0 -28 1 -25 55 3 35 0 55 -7 55 -6 0 -11 5 -11 10 0 6 14 10
31 10 24 0 29 -3 21 -13z"/>
<path d="M2000 590 c-12 -8 -11 -10 8 -10 12 0 22 5 22 10 0 13 -11 13 -30 0z"/>
<path d="M1380 561 c0 -20 75 -71 104 -71 29 0 29 0 10 21 -10 12 -38 30 -62
40 -50 22 -52 22 -52 10z"/>
<path d="M1910 551 c-40 -21 -80 -61 -61 -61 23 0 68 29 85 54 9 15 15 26 14
26 -2 -1 -19 -9 -38 -19z"/>
<path d="M1970 532 c-18 -15 -22 -24 -14 -31 14 -16 47 10 43 33 -4 17 -6 17
-29 -2z"/>
<path d="M810 515 c-8 -9 -8 -15 -2 -15 12 0 26 19 19 26 -2 2 -10 -2 -17 -11z"/>
<path d="M1342 514 c-10 -11 -8 -15 8 -24 12 -6 29 -10 39 -8 15 3 14 6 -8 24
-22 18 -28 19 -39 8z"/>
<path d="M1690 439 c28 -69 26 -107 -7 -141 -42 -44 -2 -36 49 10 26 24 43 32
45 24 8 -21 23 -2 23 27 0 27 -66 128 -77 117 -3 -2 -16 -1 -29 4 l-23 9 19
-50z"/>
<path d="M780 470 c-1 -8 -2 -19 -1 -24 1 -5 -7 -6 -19 -3 -79 21 75 -93 247
-183 l82 -42 88 12 c131 18 309 57 388 84 39 14 64 25 58 25 -7 1 -13 10 -13
21 0 23 -25 27 -34 5 -3 -8 -1 -15 4 -15 6 0 10 -4 10 -9 0 -5 -28 -12 -62
-16 -53 -6 -63 -5 -75 11 -7 10 -13 13 -13 8 0 -6 5 -15 11 -21 12 -12 6 -14
-111 -34 -36 -6 -78 -13 -94 -16 -20 -4 -27 -2 -22 6 9 15 -4 101 -15 101 -12
0 -11 -47 1 -55 14 -9 12 -41 -2 -52 -7 -6 -28 -13 -47 -17 -27 -5 -32 -3 -27
10 8 22 -4 94 -17 94 -5 0 -29 -18 -53 -40 -54 -49 -68 -51 -59 -7 12 57 15
82 9 70 -3 -7 -21 -13 -40 -13 -33 0 -39 -7 -35 -38 2 -16 -14 -7 -96 48 -43
29 -53 41 -56 70 -2 19 -5 28 -7 20z"/>
<path d="M896 464 c-8 -21 -4 -25 14 -14 11 7 12 12 4 20 -8 8 -13 7 -18 -6z"/>
<path d="M1256 473 c-11 -11 -6 -23 8 -23 8 0 17 4 20 9 7 10 -19 23 -28 14z"/>
<path d="M1617 415 c25 -51 53 -79 53 -52 0 7 -8 33 -17 60 -14 37 -22 47 -40
47 l-23 0 27 -55z"/>
<path d="M2030 456 c0 -2 14 -6 30 -8 17 -3 30 -1 30 4 0 4 -13 8 -30 8 -16 0
-30 -2 -30 -4z"/>
<path d="M930 442 c-8 -3 -22 -15 -32 -26 -17 -21 -17 -21 -18 -1 -1 18 -1 19
-11 2 -13 -23 -2 -39 22 -32 14 5 17 3 13 -9 -11 -28 4 -17 25 20 24 40 24 54
1 46z"/>
<path d="M970 405 c-8 -9 -8 -15 -2 -15 12 0 26 19 19 26 -2 2 -10 -2 -17 -11z"/>
<path d="M1251 364 c0 -11 3 -14 6 -6 3 7 2 16 -1 19 -3 4 -6 -2 -5 -13z"/>
<path d="M1156 355 c4 -8 8 -15 10 -15 2 0 4 7 4 15 0 8 -4 15 -10 15 -5 0 -7
-7 -4 -15z"/>
<path d="M1257 309 c4 -13 9 -17 15 -11 11 11 3 32 -12 32 -4 0 -6 -9 -3 -21z"/>
<path d="M1167 314 c-8 -8 3 -34 14 -34 11 0 12 27 0 34 -4 3 -11 3 -14 0z"/>
<path d="M1441 235 c-18 -8 -42 -15 -52 -15 -11 0 -19 -6 -19 -12 0 -7 -14
-26 -32 -41 l-33 -28 45 22 c48 24 147 89 134 89 -5 -1 -24 -7 -43 -15z"/>
<path d="M1915 185 c50 -44 69 -53 79 -36 7 10 -93 81 -114 81 -8 0 8 -20 35
-45z"/>
<path d="M1310 110 c27 -21 50 -26 50 -10 0 11 -42 30 -63 30 -7 0 -1 -9 13
-20z"/>
<path d="M1987 123 c-15 -14 -6 -24 16 -18 35 11 44 25 16 25 -14 0 -29 -3
-32 -7z"/>
<path d="M3885 1553 c-48 -197 -90 -364 -92 -370 -4 -10 45 -13 226 -13 127 0
231 3 231 8 -1 4 -40 169 -88 367 l-88 360 -51 3 -51 3 -87 -358z"/>
<path d="M6800 1380 l0 -530 168 0 c188 0 242 10 309 59 53 39 98 129 119 241
13 67 15 127 11 280 -10 416 -74 480 -484 480 l-123 0 0 -530z"/>
<path d="M8305 2048 c-2 -7 -22 -76 -43 -153 l-39 -140 95 -3 c52 -1 97 0 100
2 4 5 -8 53 -65 254 -14 50 -37 69 -48 40z"/>
<path d="M8733 1900 c-42 -18 -58 -94 -28 -137 29 -41 132 -36 155 7 16 29 12
86 -8 110 -19 24 -84 35 -119 20z"/>
<path d="M8712 1523 c-32 -27 -37 -64 -12 -96 20 -25 27 -27 88 -27 91 0 116
14 120 66 2 25 -2 45 -10 51 -7 6 -47 14 -89 17 -64 6 -78 5 -97 -11z"/>
<path d="M9204 1903 c-33 -6 -66 -47 -74 -92 l-7 -41 103 0 104 0 0 30 c0 72
-55 117 -126 103z"/>
<path d="M10685 1730 c-43 -6 -64 -14 -77 -30 -23 -28 -23 -62 0 -91 15 -18
28 -22 63 -21 24 1 58 7 76 13 33 10 33 11 33 75 0 72 8 67 -95 54z"/>
<path d="M11273 1885 l-33 -14 0 -141 0 -140 60 0 c109 0 140 34 140 157 0 72
-19 126 -48 142 -28 15 -80 13 -119 -4z"/>
<path d="M11744 1899 c-37 -10 -60 -41 -69 -93 l-7 -36 107 0 108 0 -7 43
c-11 70 -65 105 -132 86z"/>
<path d="M5115 1539 c-86 -32 -129 -128 -105 -234 22 -99 112 -148 234 -130
99 15 149 77 149 183 0 81 -26 138 -74 166 -39 23 -159 31 -204 15z"/>
<path d="M5057 595 c-73 -54 -92 -162 -39 -215 39 -39 98 -53 222 -54 124 0
179 14 226 57 58 53 57 145 0 183 -45 29 -378 53 -409 29z"/>
<path d="M10370 925 l0 -225 85 0 c97 0 128 11 155 55 26 42 44 159 36 228 -9
69 -43 138 -76 154 -14 7 -63 13 -112 13 l-88 0 0 -225z"/>
<path d="M9101 830 c-72 -8 -101 -31 -101 -79 0 -48 22 -66 77 -64 26 0 60 6
76 12 26 10 27 14 27 76 0 36 -3 64 -7 64 -5 -1 -37 -5 -72 -9z"/>
<path d="M9862 830 c-37 -4 -70 -14 -82 -25 -27 -24 -26 -79 1 -106 18 -18 28
-20 67 -14 89 13 92 16 92 90 0 36 -3 64 -7 64 -5 -1 -36 -5 -71 -9z"/>
<path d="M11094 999 c-21 -6 -36 -19 -44 -39 -14 -34 -6 -92 15 -110 22 -18
87 -22 115 -8 51 27 49 139 -4 153 -42 12 -51 13 -82 4z"/>
<path d="M11061 616 c-27 -29 -27 -77 -1 -101 24 -22 132 -25 168 -6 42 22 41
107 -1 115 -12 3 -50 7 -84 9 -54 4 -64 2 -82 -17z"/>
<path d="M12030 833 c-110 -11 -130 -24 -130 -83 0 -58 30 -75 105 -61 31 6
60 13 66 16 11 7 13 136 2 133 -5 0 -24 -3 -43 -5z"/>
<path d="M12537 989 c-21 -12 -47 -67 -47 -99 0 -19 6 -20 100 -20 l100 0 0
30 c0 37 -23 85 -45 94 -26 9 -88 7 -108 -5z"/>
<path d="M12490 795 c0 -29 28 -83 48 -94 12 -6 59 -11 106 -11 l86 0 0 60 0
60 -120 0 c-101 0 -120 -2 -120 -15z"/>
</g>
</svg>
